<svg viewBox="0 0 1300 250" fill="currentColor">
	<g>
		<path class="st0" d="M193.34,9.55h-176c-1.1,0-2,0.76-2,1.7v13.59c0,0.94,0.9,1.7,2,1.7h176c1.1,0,2-0.76,2-1.7V11.25
		C195.34,10.31,194.44,9.55,193.34,9.55z" />
		<path class="st0" d="M192.65,114.02h-176c-1.1,0-2,0.76-2,1.7v13.59c0,0.94,0.9,1.7,2,1.7h176c1.1,0,2-0.76,2-1.7v-13.59
		C194.65,114.78,193.76,114.02,192.65,114.02z" />
		<path class="st0" d="M192.65,222.7h-176c-1.1,0-2,0.76-2,1.7v13.59c0,0.94,0.9,1.7,2,1.7h176c1.1,0,2-0.76,2-1.7V224.4
		C194.65,223.46,193.76,222.7,192.65,222.7z" />
		<path class="st0" d="M709.89,9.7h-176c-1.1,0-2,0.76-2,1.7v13.59c0,0.94,0.9,1.7,2,1.7h176c1.1,0,2-0.76,2-1.7V11.4
		C711.89,10.46,710.99,9.7,709.89,9.7z" />
		<path class="st0" d="M709.2,114.17h-176c-1.1,0-2,0.76-2,1.7v13.59c0,0.94,0.9,1.7,2,1.7h176c1.1,0,2-0.76,2-1.7v-13.59
		C711.2,114.93,710.31,114.17,709.2,114.17z" />
		<path class="st0" d="M709.2,222.86h-176c-1.1,0-2,0.76-2,1.7v13.59c0,0.94,0.9,1.7,2,1.7h176c1.1,0,2-0.76,2-1.7v-13.59
		C711.2,223.62,710.31,222.86,709.2,222.86z" />
		<path class="st0" d="M1283.35,9.74h-176c-1.1,0-2,0.76-2,1.7v13.59c0,0.94,0.9,1.7,2,1.7h176c1.1,0,2-0.76,2-1.7V11.44
		C1285.35,10.5,1284.45,9.74,1283.35,9.74z" />
		<path class="st0" d="M1282.66,114.21h-176c-1.1,0-2,0.76-2,1.7v13.59c0,0.94,0.9,1.7,2,1.7h176c1.1,0,2-0.76,2-1.7v-13.59
		C1284.66,114.97,1283.77,114.21,1282.66,114.21z" />
		<path class="st0" d="M1282.66,222.9h-176c-1.1,0-2,0.76-2,1.7v13.59c0,0.94,0.9,1.7,2,1.7h176c1.1,0,2-0.76,2-1.7v-13.59
		C1284.66,223.66,1283.77,222.9,1282.66,222.9z" />
		<path class="st0" d="M370.1,239.69" />
		<path class="st0" d="M488.79,12.07L370.63,238.67c-0.32,0.61-1.04,1.01-1.83,1.01h-19.16c-0.79,0-1.51-0.4-1.83-1.01L229.4,11.57
		c-0.59-1.12,0.38-2.39,1.83-2.39h17.5c0.79,0,1.51,0.4,1.83,1.01l106.84,204.9c0.7,1.35,2.95,1.35,3.66,0L467.7,10.57
		c0.32-0.62,1.05-1.02,1.85-1.01l17.43,0.12C488.42,9.69,489.37,10.95,488.79,12.07z" />
		<path class="st0" d="M348.68,239.69" />
		<path class="st0" d="M370.1,239.69" />
		<path class="st0" d="M1013.65,259.19" />
		<path class="st0" d="M1011.65,239.87l-14.89-0.03c-0.61,0-1.19-0.24-1.57-0.65L816.55,45.68c-1.17-1.27-3.57-0.57-3.57,1.05v191.41
		c0,0.94-0.9,1.7-2,1.7h-16c-1.1,0-2-0.76-2-1.7V11.27c0-0.95,0.91-1.71,2.03-1.7l12.82,0.16c0.6,0.01,1.17,0.25,1.55,0.65
		l180.71,195.74c1.17,1.27,3.57,0.57,3.57-1.05V11.25c0-0.94,0.9-1.7,2-1.7h16c1.1,0,2,0.76,2,1.7v226.93
		C1013.65,239.11,1012.75,239.88,1011.65,239.87z" />
	</g>
</svg>