<?xml version="1.0" encoding="UTF-8"?>
<svg id="Layer_1" data-name="Layer 1" xmlns="http://www.w3.org/2000/svg" viewBox="0 0 2461.02 841.85">
  <path d="M1621.5,53.74c-.91-.91-28.75,2.64-21.03-4.65,18.18.87,20.62-12.73,34.34-20.6,5.54-3.17,19.75-6.79,21.19-8.01,3.94-3.31,2.76-18.21,9.87-20.48-.25,23.6,16.95,21.09,31.18,30.76,9.98,6.78,14.91,19.25,29.59,18.33,7.05,6.57-19.47,4.6-21.03,4.65v60.75l21.05,1.19-19.5,13.35-.29,36.96-71.12,23.5-4.9,65.18,84.09-25.68,4.51,62.91-93.34,29.31-6.93,66.65,103.98-34.94c2.33,1.53,3.03,3.02,3.48,5.73,1.32,7.9.52,44.15,3.34,48.07,48.92,9.95,95.44,33.53,127.49,72.25l-47.48-26.1c-50.24-21.51-94.5-22.49-146.96-8.26-61.25,16.61-139.12,72.62-192.29,11.05-1.89-2.18-12.18-14.71-10.47-16.38,9.87,3.3,16.4,10.62,26.74,14.12,38.41,13.02,74.1-9.49,107.5-25.91,3.61-12.39,4.55-25.71,5.93-38.46,8.13-75.08,18.31-163.55,21.13-238.21,1.11-29.32-2.24-19.83-21.12-36.29l21.03-.02v-60.75ZM1691.59,53.74h-56.07v57.24l3.5,3.5h52.57v-60.75Z"/>
  <path d="M1338.81,752.34l6.63-3.87,90.67-203.72,7.82-.37,60.76,292.06-18.46-.23-51.66-235.74c-17.89,18.82-81.42,196.43-92.27,196.4-10.85-.03-75.35-177.12-92.26-196.4l-51.53,235.87-18.6.11,60.78-292.07,9.34,1.16,88.79,206.79Z"/>
  <path d="M1667.96,544.68l135.78,291.74c-6.78-.75-17.04,2.34-22.23-2.28-6.98-6.22-19.57-45.11-24.76-55.84l-185.23-.42-25.11,58.24-23.05.29,135.78-291.74h8.81ZM1581.78,761.68h165.89l-85.26-179.92-80.63,179.92Z"/>
  <path d="M352.69,544.47l135.62,291.97-20.64-.37-27.64-58.12-183.26,1.54-24.27,54.65-22.2,2.31,134.4-289.64,8-2.32ZM432.24,761.68l-82.94-179.86-82.94,179.86h165.89Z"/>
  <path d="M387.83,161.22c-40.15-22.36-97.44-36.55-141.77-19.14-46.48,18.25-54.12,73.6-8.49,98.16,51.51,27.73,166.12,21.44,173.63,99.73,10.83,112.89-143.84,118.58-216.53,81.02-5.13-2.65-23.8-14.17-26.62-17.83-5.11-6.62,8.63-30.21,12.9-29.25,1.14.26,13.65,11.56,18.43,14.33,38.55,22.36,100.66,33.22,142.39,15.44,37.83-16.12,49.77-64.66,13.67-89.73-51.19-35.55-172.3-22.96-181.89-105.5-12.78-110.09,135.34-121.59,208.17-84.34,25.88,13.23,10.21,14.4,6.11,37.1Z"/>
  <rect x="53.74" y="107.47" width="35.05" height="331.78"/>
  <polygon points="228.97 549.06 228.97 565.42 127.34 565.42 123.83 568.92 123.83 836.45 105.14 836.45 105.14 565.42 0 565.42 0 549.06 228.97 549.06"/>
  <path d="M2081.78,703.27h-107.48v-16.36h161.22v16.36h-35.05c-.36,107.16-111.52,171.61-206.33,121.05-106.62-56.85-90.05-227.34,21.14-270.03,51.19-19.65,128.27-12.51,164,33l-12.68,13.13c-82.49-77.24-215.07-32.15-225.17,83.28-15.05,172.03,232.55,190.45,240.36,19.56Z"/>
  <path d="M2461.02,692.72c0,81.38-65.97,147.35-147.35,147.35s-147.35-65.97-147.35-147.35,65.97-147.35,147.35-147.35,147.35,65.97,147.35,147.35ZM2291.55,563.74c-98.33,11.75-132.46,143.47-74.2,215.42,59.16,73.07,184.73,52.32,213.64-38.6,31.34-98.59-32.97-189.54-139.44-176.82Z"/>
  <path d="M768.69,703.27h-109.81v-16.36h161.22v16.36h-32.71c-4.9,100.26-94.07,163.4-190.47,128.55-104.37-37.73-116.55-185.1-36.19-253.58,57.05-48.62,152.2-45.52,205.6,7.04l-14.99,15.11c-46.61-47.49-129.49-51.41-179.99-6.86-65.63,57.9-58.73,182.73,26.19,219,84.39,36.04,165.54-21.12,171.17-109.26Z"/>
  <path d="M1146.64,692.73c0,81.38-65.97,147.35-147.35,147.35s-147.35-65.97-147.35-147.35,65.97-147.35,147.35-147.35,147.35,65.97,147.35,147.35ZM976.08,563.69c-137,18.55-135.83,247.24,8.66,258.83,190.27,15.26,184.14-284.93-8.66-258.83Z"/>
  <path d="M714.96,439.25l149.78-328.03c5.97-7.66,24.34-2.03,33.73-3.92l152.94,331.95h-37.38l-37.14-87.34-186.84-1.13-37.7,88.47h-37.38ZM803.74,322.43h158.88l-80.58-175.25-78.3,175.25Z"/>
  <polygon points="523.37 107.47 523.37 408.88 707.95 408.88 707.95 439.25 488.32 439.25 488.32 107.47 523.37 107.47"/>
</svg>