<svg xmlns="http://www.w3.org/2000/svg" version="1.1" xmlns:xlink="http://www.w3.org/1999/xlink" xmlns:svgjs="http://svgjs.com/svgjs" width="1000" height="1000"><rect width="1000" height="1000" rx="200" ry="200" fill="#555555"></rect><g transform="matrix(3.2,0,0,3.2,164.01101074218747,100.83601703643797)"><svg xmlns="http://www.w3.org/2000/svg" version="1.1" xmlns:xlink="http://www.w3.org/1999/xlink" xmlns:svgjs="http://svgjs.com/svgjs" width="210" height="250"><svg version="1.1" id="Layer_1" xmlns="http://www.w3.org/2000/svg" xmlns:xlink="http://www.w3.org/1999/xlink" x="0px" y="0px" viewBox="0 0 210 250" style="enable-background:new 0 0 210 250;" xml:space="preserve">
<style type="text/css">
	.st0{fill:#E2E2E2;}
</style>
<g>
	<path class="st0" d="M193.34,9.55h-176c-1.1,0-2,0.76-2,1.7v13.59c0,0.94,0.9,1.7,2,1.7h176c1.1,0,2-0.76,2-1.7V11.25
		C195.34,10.31,194.44,9.55,193.34,9.55z"></path>
	<path class="st0" d="M192.65,114.02h-176c-1.1,0-2,0.76-2,1.7v13.59c0,0.94,0.9,1.7,2,1.7h176c1.1,0,2-0.76,2-1.7v-13.59
		C194.65,114.78,193.76,114.02,192.65,114.02z"></path>
	<path class="st0" d="M192.65,222.7h-176c-1.1,0-2,0.76-2,1.7v13.59c0,0.94,0.9,1.7,2,1.7h176c1.1,0,2-0.76,2-1.7V224.4
		C194.65,223.46,193.76,222.7,192.65,222.7z"></path>
</g>
</svg></svg></g></svg>